<svg width="46" height="46" viewBox="0 0 46 46" fill="none" xmlns="http://www.w3.org/2000/svg">
<rect width="46" height="46" rx="6" fill="url(#paint0_radial_301_135)"/>
<rect x="5.91431" y="30.2286" width="34.8286" height="8.54286" fill="#4F4A4A"/>
<path d="M11.247 37.07C10.813 37.07 10.449 37.007 10.155 36.881C9.86567 36.7503 9.644 36.5823 9.49 36.377C9.34067 36.167 9.26133 35.9477 9.252 35.719C9.252 35.677 9.266 35.642 9.294 35.614C9.322 35.586 9.357 35.572 9.399 35.572H10.022C10.0827 35.572 10.127 35.586 10.155 35.614C10.1877 35.6373 10.2157 35.6677 10.239 35.705C10.267 35.7937 10.3207 35.8823 10.4 35.971C10.4793 36.055 10.5867 36.125 10.722 36.181C10.862 36.237 11.037 36.265 11.247 36.265C11.583 36.265 11.8327 36.209 11.996 36.097C12.164 35.985 12.248 35.8333 12.248 35.642C12.248 35.5067 12.2037 35.3993 12.115 35.32C12.0263 35.236 11.8887 35.1613 11.702 35.096C11.52 35.026 11.2773 34.9537 10.974 34.879C10.624 34.795 10.33 34.6947 10.092 34.578C9.85867 34.4567 9.68133 34.305 9.56 34.123C9.44333 33.941 9.385 33.71 9.385 33.43C9.385 33.1593 9.45733 32.919 9.602 32.709C9.75133 32.499 9.96133 32.3333 10.232 32.212C10.5073 32.0907 10.834 32.03 11.212 32.03C11.5153 32.03 11.7837 32.072 12.017 32.156C12.2503 32.2353 12.444 32.3427 12.598 32.478C12.752 32.6087 12.8687 32.751 12.948 32.905C13.032 33.0543 13.0763 33.2013 13.081 33.346C13.081 33.3833 13.067 33.4183 13.039 33.451C13.0157 33.479 12.9807 33.493 12.934 33.493H12.283C12.2457 33.493 12.2083 33.4837 12.171 33.465C12.1337 33.4463 12.1033 33.4113 12.08 33.36C12.052 33.2153 11.961 33.0917 11.807 32.989C11.653 32.8863 11.4547 32.835 11.212 32.835C10.96 32.835 10.757 32.8817 10.603 32.975C10.449 33.0683 10.372 33.213 10.372 33.409C10.372 33.5397 10.4093 33.6493 10.484 33.738C10.5633 33.822 10.687 33.8967 10.855 33.962C11.0277 34.0273 11.254 34.0973 11.534 34.172C11.9307 34.2607 12.255 34.3633 12.507 34.48C12.759 34.5967 12.9433 34.746 13.06 34.928C13.1767 35.1053 13.235 35.3317 13.235 35.607C13.235 35.915 13.151 36.1787 12.983 36.398C12.8197 36.6127 12.5887 36.7783 12.29 36.895C11.9913 37.0117 11.6437 37.07 11.247 37.07ZM14.2052 37C14.1585 37 14.1189 36.986 14.0862 36.958C14.0535 36.9253 14.0372 36.8833 14.0372 36.832V32.275C14.0372 32.2237 14.0535 32.1817 14.0862 32.149C14.1189 32.1163 14.1585 32.1 14.2052 32.1H14.8422C14.8935 32.1 14.9332 32.1163 14.9612 32.149C14.9939 32.1817 15.0102 32.2237 15.0102 32.275V34.081H17.0752V32.275C17.0752 32.2237 17.0915 32.1817 17.1242 32.149C17.1569 32.1163 17.1965 32.1 17.2432 32.1H17.8732C17.9245 32.1 17.9665 32.1163 17.9992 32.149C18.0319 32.1817 18.0482 32.2237 18.0482 32.275V36.832C18.0482 36.8787 18.0319 36.9183 17.9992 36.951C17.9665 36.9837 17.9245 37 17.8732 37H17.2432C17.1965 37 17.1569 36.9837 17.1242 36.951C17.0915 36.9183 17.0752 36.8787 17.0752 36.832V34.956H15.0102V36.832C15.0102 36.8787 14.9939 36.9183 14.9612 36.951C14.9332 36.9837 14.8935 37 14.8422 37H14.2052ZM18.8358 37C18.7985 37 18.7635 36.986 18.7308 36.958C18.7028 36.93 18.6888 36.895 18.6888 36.853C18.6888 36.8343 18.6935 36.8133 18.7028 36.79L20.3898 32.275C20.4038 32.2283 20.4295 32.1887 20.4668 32.156C20.5088 32.1187 20.5648 32.1 20.6348 32.1H21.3978C21.4678 32.1 21.5215 32.1187 21.5588 32.156C21.5962 32.1887 21.6242 32.2283 21.6428 32.275L23.3298 36.79C23.3345 36.8133 23.3368 36.8343 23.3368 36.853C23.3368 36.895 23.3228 36.93 23.2948 36.958C23.2668 36.986 23.2342 37 23.1968 37H22.5878C22.5225 37 22.4735 36.986 22.4408 36.958C22.4128 36.9253 22.3942 36.895 22.3848 36.867L22.0558 36.013H19.9768L19.6478 36.867C19.6385 36.895 19.6175 36.9253 19.5848 36.958C19.5568 36.986 19.5102 37 19.4448 37H18.8358ZM20.2218 35.208H21.8108L21.0128 33.045L20.2218 35.208ZM24.1583 37C24.1117 37 24.072 36.9837 24.0393 36.951C24.0067 36.9183 23.9903 36.8787 23.9903 36.832V32.275C23.9903 32.2237 24.0067 32.1817 24.0393 32.149C24.072 32.1163 24.1117 32.1 24.1583 32.1H26.0343C26.3983 32.1 26.7157 32.1583 26.9863 32.275C27.257 32.387 27.467 32.5597 27.6163 32.793C27.7657 33.0217 27.8403 33.3087 27.8403 33.654C27.8403 34.004 27.7657 34.2933 27.6163 34.522C27.467 34.746 27.257 34.914 26.9863 35.026C26.7157 35.138 26.3983 35.194 26.0343 35.194H24.9913V36.832C24.9913 36.8787 24.975 36.9183 24.9423 36.951C24.9143 36.9837 24.8747 37 24.8233 37H24.1583ZM24.9773 34.417H25.9993C26.27 34.417 26.4777 34.354 26.6223 34.228C26.767 34.0973 26.8393 33.906 26.8393 33.654C26.8393 33.4207 26.7717 33.234 26.6363 33.094C26.501 32.9493 26.2887 32.877 25.9993 32.877H24.9773V34.417ZM28.7726 37C28.7259 37 28.6863 36.9837 28.6536 36.951C28.6209 36.9183 28.6046 36.8787 28.6046 36.832V32.275C28.6046 32.2237 28.6209 32.1817 28.6536 32.149C28.6863 32.1163 28.7259 32.1 28.7726 32.1H31.8526C31.9039 32.1 31.9459 32.1163 31.9786 32.149C32.0113 32.1817 32.0276 32.2237 32.0276 32.275V32.737C32.0276 32.7837 32.0113 32.8233 31.9786 32.856C31.9459 32.8887 31.9039 32.905 31.8526 32.905H29.5496V34.144H31.6986C31.7499 34.144 31.7919 34.1603 31.8246 34.193C31.8573 34.221 31.8736 34.2607 31.8736 34.312V34.746C31.8736 34.7973 31.8573 34.8393 31.8246 34.872C31.7919 34.9 31.7499 34.914 31.6986 34.914H29.5496V36.195H31.9086C31.9599 36.195 32.0019 36.2113 32.0346 36.244C32.0673 36.2767 32.0836 36.3187 32.0836 36.37V36.832C32.0836 36.8787 32.0673 36.9183 32.0346 36.951C32.0019 36.9837 31.9599 37 31.9086 37H28.7726ZM34.6601 37.07C34.2261 37.07 33.8621 37.007 33.5681 36.881C33.2788 36.7503 33.0571 36.5823 32.9031 36.377C32.7538 36.167 32.6744 35.9477 32.6651 35.719C32.6651 35.677 32.6791 35.642 32.7071 35.614C32.7351 35.586 32.7701 35.572 32.8121 35.572H33.4351C33.4958 35.572 33.5401 35.586 33.5681 35.614C33.6008 35.6373 33.6288 35.6677 33.6521 35.705C33.6801 35.7937 33.7338 35.8823 33.8131 35.971C33.8924 36.055 33.9998 36.125 34.1351 36.181C34.2751 36.237 34.4501 36.265 34.6601 36.265C34.9961 36.265 35.2458 36.209 35.4091 36.097C35.5771 35.985 35.6611 35.8333 35.6611 35.642C35.6611 35.5067 35.6168 35.3993 35.5281 35.32C35.4394 35.236 35.3018 35.1613 35.1151 35.096C34.9331 35.026 34.6904 34.9537 34.3871 34.879C34.0371 34.795 33.7431 34.6947 33.5051 34.578C33.2718 34.4567 33.0944 34.305 32.9731 34.123C32.8564 33.941 32.7981 33.71 32.7981 33.43C32.7981 33.1593 32.8704 32.919 33.0151 32.709C33.1644 32.499 33.3744 32.3333 33.6451 32.212C33.9204 32.0907 34.2471 32.03 34.6251 32.03C34.9284 32.03 35.1968 32.072 35.4301 32.156C35.6634 32.2353 35.8571 32.3427 36.0111 32.478C36.1651 32.6087 36.2818 32.751 36.3611 32.905C36.4451 33.0543 36.4894 33.2013 36.4941 33.346C36.4941 33.3833 36.4801 33.4183 36.4521 33.451C36.4288 33.479 36.3938 33.493 36.3471 33.493H35.6961C35.6588 33.493 35.6214 33.4837 35.5841 33.465C35.5468 33.4463 35.5164 33.4113 35.4931 33.36C35.4651 33.2153 35.3741 33.0917 35.2201 32.989C35.0661 32.8863 34.8678 32.835 34.6251 32.835C34.3731 32.835 34.1701 32.8817 34.0161 32.975C33.8621 33.0683 33.7851 33.213 33.7851 33.409C33.7851 33.5397 33.8224 33.6493 33.8971 33.738C33.9764 33.822 34.1001 33.8967 34.2681 33.962C34.4408 34.0273 34.6671 34.0973 34.9471 34.172C35.3438 34.2607 35.6681 34.3633 35.9201 34.48C36.1721 34.5967 36.3564 34.746 36.4731 34.928C36.5898 35.1053 36.6481 35.3317 36.6481 35.607C36.6481 35.915 36.5641 36.1787 36.3961 36.398C36.2328 36.6127 36.0018 36.7783 35.7031 36.895C35.4044 37.0117 35.0568 37.07 34.6601 37.07Z" fill="white"/>
<rect x="24" y="9" width="16.8" height="16.8" rx="4" fill="#4F4A4A"/>
<circle cx="19.5" cy="17.5" r="8.5" fill="url(#paint1_radial_301_135)"/>
<path d="M17.6093 16.2181C18.1302 16.5736 18.1302 17.4264 17.6093 17.7819L7.22896 24.8667C6.68924 25.235 6 24.7965 6 24.0847L6 9.91526C6 9.20349 6.68924 8.76496 7.22896 9.13333L17.6093 16.2181Z" fill="#877D7D"/>
<defs>
<radialGradient id="paint0_radial_301_135" cx="0" cy="0" r="1" gradientUnits="userSpaceOnUse" gradientTransform="translate(9.85714 10.8429) rotate(47.7263) scale(53.7302)">
<stop stop-color="#E0D8D8"/>
<stop offset="1" stop-color="#B3A1A1"/>
</radialGradient>
<radialGradient id="paint1_radial_301_135" cx="0" cy="0" r="1" gradientUnits="userSpaceOnUse" gradientTransform="translate(24.6944 12.3056) rotate(138.532) scale(27.0983)">
<stop stop-color="#F5E5E1"/>
<stop offset="1" stop-color="#8D8383"/>
</radialGradient>
</defs>
</svg>
